<svg width="20" height="20" viewBox="0 0 20 20" fill="none" xmlns="http://www.w3.org/2000/svg">
<path fill-rule="evenodd" clip-rule="evenodd" d="M9.81818 10.9407L15.4706 17.0453H4.16571L9.81818 10.9407Z" fill="#191414"/>
<path fill-rule="evenodd" clip-rule="evenodd" d="M5.19686 13.76C3.88657 12.5553 3.13242 10.8947 3.13242 9.11738C3.13242 5.56927 6.12572 2.69296 9.81814 2.69296C13.5106 2.69296 16.5038 5.56927 16.5038 9.11738C16.5038 10.8947 15.7497 12.5553 14.4394 13.76L15.1505 14.4741C16.6615 13.0849 17.5324 11.1673 17.5324 9.11738C17.5324 5.02341 14.0786 1.70459 9.81814 1.70459C5.55765 1.70459 2.10385 5.02341 2.10385 9.11738C2.10385 11.1673 2.97473 13.0849 4.48579 14.4741L5.19686 13.76Z" fill="#191414"/>
<path fill-rule="evenodd" clip-rule="evenodd" d="M6.85579 12.0917C6.01572 11.3193 5.53242 10.2551 5.53242 9.11562C5.53242 6.84119 7.4512 4.99741 9.81813 4.99741C12.1851 4.99741 14.1038 6.84119 14.1038 9.11562C14.1038 10.2551 13.6205 11.3193 12.7805 12.0917L13.4915 12.8058C14.5324 11.8489 15.1324 10.5276 15.1324 9.11562C15.1324 6.29533 12.7531 4.00903 9.81813 4.00903C6.88313 4.00903 4.50385 6.29533 4.50385 9.11562C4.50385 10.5276 5.10389 11.8489 6.14472 12.8058L6.85579 12.0917Z" fill="#191414"/>
<path fill-rule="evenodd" clip-rule="evenodd" d="M8.51472 10.4234C8.14488 10.0833 7.93241 9.61548 7.93241 9.11386C7.93241 8.11312 8.77667 7.30185 9.81812 7.30185C10.8596 7.30185 11.7038 8.11312 11.7038 9.11386C11.7038 9.61548 11.4914 10.0833 11.1215 10.4234L11.8326 11.1375C12.4032 10.6129 12.7324 9.888 12.7324 9.11386C12.7324 7.56725 11.4276 6.31348 9.81812 6.31348C8.20861 6.31348 6.90384 7.56725 6.90384 9.11386C6.90384 9.888 7.23305 10.6129 7.80365 11.1375L8.51472 10.4234Z" fill="#191414"/>
</svg>
