<svg width="17" height="17" viewBox="0 0 17 17" fill="none" xmlns="http://www.w3.org/2000/svg">
<g clip-path="url(#clip0_155_1638)">
<path fill-rule="evenodd" clip-rule="evenodd" d="M15.4444 8.23699C15.4444 12.2175 12.2175 15.4444 8.23699 15.4444C4.25647 15.4444 1.02962 12.2175 1.02962 8.23699C1.02962 4.25647 4.25647 1.02962 8.23699 1.02962C12.2175 1.02962 15.4444 4.25647 15.4444 8.23699ZM16.474 8.23699C16.474 12.7862 12.7862 16.474 8.23699 16.474C3.68783 16.474 0 12.7862 0 8.23699C0 3.68783 3.68783 0 8.23699 0C12.7862 0 16.474 3.68783 16.474 8.23699ZM11.3259 8.2369C11.3259 9.94283 9.94292 11.3258 8.23698 11.3258C6.53105 11.3258 5.14811 9.94283 5.14811 8.2369C5.14811 6.53096 6.53105 5.14803 8.23698 5.14803C9.94292 5.14803 11.3259 6.53096 11.3259 8.2369ZM12.3555 8.2369C12.3555 10.5115 10.5116 12.3554 8.23698 12.3554C5.9624 12.3554 4.11849 10.5115 4.11849 8.2369C4.11849 5.96232 5.9624 4.1184 8.23698 4.1184C10.5116 4.1184 12.3555 5.96232 12.3555 8.2369Z" fill="#191414"/>
</g>
<defs>
<clipPath id="clip0_155_1638">
<rect width="16.474" height="16.474" fill="white"/>
</clipPath>
</defs>
</svg>
