<svg width="22" height="23" viewBox="0 0 22 23" fill="none" xmlns="http://www.w3.org/2000/svg">
<path d="M11.6506 4.34098C11.6506 1.61752 9.62314 0.28418 7.4408 0.28418C5.25847 0.28418 3.23101 1.61752 3.23101 4.34098C3.23101 5.75504 4.57185 7.43392 5.3359 8.3331C7.86178 10.9945 0.705129 12.7688 0.284149 14.5431L0.284149 18.0916" stroke="#47464B" stroke-width="0.568322"/>
<path d="M15.271 12.1219C16.534 9.90408 16.9549 9.41404 16.9549 8.1298C16.9549 5.40633 14.9275 4.073 12.7452 4.073C10.5628 4.073 8.53536 5.40633 8.53536 8.1298C8.53536 9.54385 9.8762 11.2227 10.6403 12.1219C13.1661 14.7833 6.00948 16.5576 5.5885 18.3319L5.5885 21.8804" stroke="#47464B" stroke-width="0.568322"/>
<path d="M20.6696 22.2593L20.7437 18.609C19.8914 16.7585 12.8877 15.1869 15.1179 12.221L15.6114 11.6506" stroke="#47464B" stroke-width="0.580414"/>
</svg>
