<svg width="18" height="18" viewBox="0 0 18 18" fill="none" xmlns="http://www.w3.org/2000/svg">
<g clip-path="url(#clip0_158_1685)">
<path fill-rule="evenodd" clip-rule="evenodd" d="M8.83483 16.5653C13.1043 16.5653 16.5653 13.1043 16.5653 8.83483C16.5653 4.56541 13.1043 1.10435 8.83483 1.10435C4.56541 1.10435 1.10435 4.56541 1.10435 8.83483C1.10435 13.1043 4.56541 16.5653 8.83483 16.5653ZM8.83483 17.6697C13.7142 17.6697 17.6697 13.7142 17.6697 8.83483C17.6697 3.95549 13.7142 0 8.83483 0C3.95549 0 0 3.95549 0 8.83483C0 13.7142 3.95549 17.6697 8.83483 17.6697Z" fill="#47464B"/>
</g>
<rect x="3.21266" y="8.03174" width="11.2443" height="0.803166" fill="#47464B"/>
<defs>
<clipPath id="clip0_158_1685">
<rect width="17.6697" height="17.6697" fill="white"/>
</clipPath>
</defs>
</svg>
