<svg width="16" height="17" viewBox="0 0 16 17" fill="none" xmlns="http://www.w3.org/2000/svg">
<path d="M9.59998 9V16.1978" stroke="#47464B" stroke-width="1.2"/>
<path d="M0.599976 9L0.599976 16.1978" stroke="#47464B" stroke-width="1.2"/>
<path d="M9.59998 0V7.19782" stroke="#47464B" stroke-width="1.2"/>
<path d="M6.20007 0L6.19998 7.21022" stroke="#47464B" stroke-width="1.2"/>
<path d="M15.2001 9L15.2 16.2102" stroke="#47464B" stroke-width="1.2"/>
<path d="M6.20007 9L6.19998 16.2102" stroke="#47464B" stroke-width="1.2"/>
<path d="M15.2001 0L15.2 7.21022" stroke="#47464B" stroke-width="1.2"/>
<line x1="6.59998" y1="0.6" x2="0.599976" y2="0.6" stroke="#47464B" stroke-width="1.2"/>
<line x1="15.6" y1="9.6" x2="9.59998" y2="9.6" stroke="#47464B" stroke-width="1.2"/>
<line x1="6.59998" y1="9.6" x2="0.599976" y2="9.6" stroke="#47464B" stroke-width="1.2"/>
<path d="M0.599976 0L0.599976 7.19782" stroke="#191414" stroke-width="1.2"/>
<line x1="15.6" y1="0.6" x2="9.59998" y2="0.6" stroke="#47464B" stroke-width="1.2"/>
<line x1="6.59998" y1="6.6" x2="0.599976" y2="6.6" stroke="#47464B" stroke-width="1.2"/>
<line x1="15.6" y1="15.6" x2="9.59998" y2="15.6" stroke="#47464B" stroke-width="1.2"/>
<line x1="6.59998" y1="15.6" x2="0.599976" y2="15.6" stroke="#47464B" stroke-width="1.2"/>
<line x1="15.6" y1="6.6" x2="9.59998" y2="6.6" stroke="#47464B" stroke-width="1.2"/>
</svg>
