<svg width="20" height="24" viewBox="0 0 20 24" fill="none" xmlns="http://www.w3.org/2000/svg">
<path d="M6 10.6001H7V19.6001L6 19.0001V10.6001Z" fill="#47464B"/>
<path d="M8.5 6.1001L19 4.00198L19 5.00198L9 7.10006L8.5 6.1001Z" fill="#47464B"/>
<circle cx="5" cy="7.6001" r="5" fill="#47464B"/>
<path d="M5.52393 7.10947H7.9623V8.1605H5.52393V10.9232H4.40684V8.1605H1.96846V7.10947H4.40684V4.55698H5.52393V7.10947Z" fill="white"/>
<path fill-rule="evenodd" clip-rule="evenodd" d="M3.5 23.6001C5.433 23.6001 7 22.0331 7 20.1001C7 18.1671 5.433 16.6001 3.5 16.6001C1.567 16.6001 0 18.1671 0 20.1001C0 22.0331 1.567 23.6001 3.5 23.6001ZM3.5 22.4334C4.78866 22.4334 5.83333 21.3888 5.83333 20.1001C5.83333 18.8114 4.78866 17.7668 3.5 17.7668C2.21134 17.7668 1.16667 18.8114 1.16667 20.1001C1.16667 21.3888 2.21134 22.4334 3.5 22.4334Z" fill="#47464B"/>
<path fill-rule="evenodd" clip-rule="evenodd" d="M15.5 21.6001C17.433 21.6001 19 20.0331 19 18.1001C19 16.1671 17.433 14.6001 15.5 14.6001C13.567 14.6001 12 16.1671 12 18.1001C12 20.0331 13.567 21.6001 15.5 21.6001ZM15.5 20.4334C16.7887 20.4334 17.8333 19.3888 17.8333 18.1001C17.8333 16.8114 16.7887 15.7668 15.5 15.7668C14.2113 15.7668 13.1667 16.8114 13.1667 18.1001C13.1667 19.3888 14.2113 20.4334 15.5 20.4334Z" fill="#47464B"/>
<path d="M18 5.06438L19 4.6001V17.6001L18 16.6716V5.06438Z" fill="#47464B"/>
</svg>
