<svg width="20" height="23" viewBox="0 0 20 23" fill="none" xmlns="http://www.w3.org/2000/svg">
<path fill-rule="evenodd" clip-rule="evenodd" d="M14.2985 21.1001C15.8393 21.1001 17.0884 19.851 17.0884 18.3102C17.0884 16.7694 15.8393 15.5203 14.2985 15.5203C12.7576 15.5203 11.5085 16.7694 11.5085 18.3102C11.5085 19.851 12.7576 21.1001 14.2985 21.1001ZM14.2983 19.9842C15.2228 19.9842 15.9723 19.2347 15.9723 18.3102C15.9723 17.3857 15.2228 16.6363 14.2983 16.6363C13.3738 16.6363 12.6243 17.3857 12.6243 18.3102C12.6243 19.2347 13.3738 19.9842 14.2983 19.9842Z" fill="#47464B"/>
<path d="M16.1584 10.1135H17.0884V18.8321L16.1584 19.4133V10.1135Z" fill="#47464B"/>
<path d="M16.6233 11.0434L17.0884 10.1134L19.5539 12.9848L18.9493 13.5877L16.6233 11.0434Z" fill="#47464B"/>
<path d="M14.2985 14.0375C12.7485 12.4044 11.1985 11.86 12.2319 10.2269C13.7818 7.50496 14.2985 6.90355 14.2985 5.32744C14.2985 1.985 11.8102 0.348633 9.13192 0.348633C6.4536 0.348633 3.96535 1.985 3.96535 5.32744C3.96535 7.06287 5.61093 9.12331 6.54864 10.2269C9.64858 13.4931 0.865412 15.6707 0.348755 17.8482L0.348755 22.2032" stroke="#47464B" stroke-width="0.697487"/>
</svg>
