<svg width="17" height="17" viewBox="0 0 17 17" fill="none" xmlns="http://www.w3.org/2000/svg">
<path d="M15.2364 2.47282C14.383 1.61182 13.2373 1.10295 12.0263 1.04712C10.8153 0.991298 9.62763 1.39259 8.69868 2.17142C8.59182 2.25207 8.46311 2.29857 8.32938 2.30485C8.19484 2.30092 8.06505 2.25418 7.9589 2.17142C7.03037 1.39215 5.84273 0.990555 4.63181 1.04639C3.4209 1.10222 2.27526 1.6114 1.42238 2.47282C0.5051 3.3901 0 4.60996 0 5.90726C0 7.20455 0.5051 8.42442 1.39141 9.30834L6.70687 15.5304C6.90716 15.7653 7.15607 15.954 7.4364 16.0834C7.71674 16.2128 8.02182 16.2798 8.33057 16.2798C8.63933 16.2798 8.94441 16.2128 9.22474 16.0834C9.50507 15.954 9.75398 15.7653 9.95428 15.5304L15.2376 9.3417C15.6901 8.89175 16.0489 8.35654 16.2933 7.76703C16.5376 7.17751 16.6627 6.5454 16.6611 5.90726C16.6622 5.26907 16.5368 4.63701 16.2923 4.04754C16.0477 3.45806 15.6889 2.92286 15.2364 2.47282Z" fill="white"/>
</svg>
