<svg width="18" height="18" viewBox="0 0 18 18" fill="none" xmlns="http://www.w3.org/2000/svg">
<path d="M15.9619 2.59055C15.0679 1.68855 13.8676 1.15545 12.599 1.09696C11.3304 1.03848 10.0861 1.45888 9.1129 2.2748C9.00095 2.35929 8.86611 2.40801 8.72602 2.41458C8.58507 2.41047 8.4491 2.3615 8.33789 2.2748C7.36514 1.45842 6.12096 1.0377 4.85238 1.09619C3.5838 1.15469 2.3836 1.68811 1.49011 2.59055C0.529152 3.55151 0 4.82946 0 6.18853C0 7.5476 0.529152 8.82555 1.45766 9.75157L7.02624 16.2699C7.23608 16.516 7.49684 16.7137 7.79052 16.8493C8.0842 16.9848 8.40381 17.055 8.72727 17.055C9.05072 17.055 9.37033 16.9848 9.66401 16.8493C9.9577 16.7137 10.2185 16.516 10.4283 16.2699L15.9632 9.78651C16.4372 9.31514 16.8132 8.75445 17.0691 8.13686C17.3251 7.51928 17.4561 6.85706 17.4545 6.18853C17.4556 5.51996 17.3243 4.85779 17.0681 4.24025C16.8119 3.62271 16.4359 3.06202 15.9619 2.59055Z" fill="#191414"/>
</svg>
