<svg width="18" height="18" viewBox="0 0 18 18" fill="none" xmlns="http://www.w3.org/2000/svg">
<path d="M3.27382 13.091H14.1829C14.7829 13.091 15.2738 12.6001 15.2738 12.0001V3.27279C15.2738 2.67279 14.7829 2.18188 14.1829 2.18188H3.27382C2.67382 2.18188 2.18291 2.67279 2.18291 3.27279V12.0001C2.18291 12.6001 2.67382 13.091 3.27382 13.091ZM3.27382 3.27279H14.1829V12.0001H3.27382V3.27279ZM16.9102 15.2728H0.545455C0.245455 15.2728 0 15.5182 0 15.8182C0 16.1182 0.245455 16.3637 0.545455 16.3637H16.9102C17.2102 16.3637 17.4556 16.1182 17.4556 15.8182C17.4556 15.5182 17.2102 15.2728 16.9102 15.2728Z" fill="#191414"/>
</svg>
