<svg width="18" height="18" viewBox="0 0 18 18" fill="none" xmlns="http://www.w3.org/2000/svg">
<path d="M14.2422 1.09106L13.5249 1.93053C15.2599 3.53904 16.3524 5.82968 16.3524 8.37557C16.3524 10.9215 15.2588 13.2121 13.5249 14.8206L14.2411 15.6601C15.2535 14.7358 16.0621 13.6107 16.6154 12.3565C17.1686 11.1023 17.4544 9.74661 17.4545 8.37581C17.4546 7.00501 17.1691 5.64923 16.616 4.39497C16.0629 3.1407 15.2544 2.01547 14.2422 1.09106ZM11.7426 4.01763L11.0263 4.85709C11.4936 5.31634 11.8647 5.86407 12.118 6.4683C12.3713 7.07253 12.5017 7.72117 12.5016 8.37635C12.5015 9.03153 12.3709 9.68012 12.1174 10.2843C11.8639 10.8884 11.4926 11.436 11.0252 11.8951L11.7415 12.7346C12.8857 11.6344 13.6019 10.0897 13.6019 8.37667C13.6019 6.66364 12.8868 5.11784 11.7426 4.01763ZM0 5.07493V11.6762H3.08499L8.80169 14.9768V1.7743L3.08499 5.07493H0ZM7.70148 3.67986V13.0713L3.37985 10.576H1.10021V6.17514H3.37985L7.70148 3.67986Z" fill="#191414"/>
</svg>
