<svg width="20" height="20" viewBox="0 0 20 20" fill="none" xmlns="http://www.w3.org/2000/svg">
<path d="M15.537 1.19019L14.7544 2.10596C16.6472 3.8607 17.839 6.35958 17.839 9.13692C17.839 11.9142 16.646 14.4131 14.7544 16.1679L15.5358 17.0836C16.6402 16.0754 17.5223 14.848 18.1258 13.4798C18.7294 12.1116 19.0412 10.6326 19.0413 9.13718C19.0414 7.64176 18.7299 6.16273 18.1265 4.79444C17.5231 3.42615 16.6412 2.19863 15.537 1.19019ZM12.8101 4.3828L12.0287 5.29858C12.5385 5.79958 12.9433 6.3971 13.2196 7.05626C13.496 7.71543 13.6382 8.42303 13.6381 9.13777C13.638 9.85251 13.4955 10.5601 13.219 11.2191C12.9425 11.8782 12.5374 12.4756 12.0275 12.9765L12.8089 13.8922C14.0571 12.692 14.8385 11.0069 14.8385 9.13812C14.8385 7.26936 14.0583 5.58303 12.8101 4.3828ZM0 5.53622V12.7376H3.36545L9.60185 16.3383V1.93553L3.36545 5.53622H0ZM8.40162 4.01433V14.2595L3.68711 11.5374H1.20023V6.73645H3.68711L8.40162 4.01433Z" fill="white"/>
</svg>
