<svg width="20" height="20" viewBox="0 0 20 20" fill="none" xmlns="http://www.w3.org/2000/svg">
<path d="M3.57144 14.281H15.4723C16.1268 14.281 16.6623 13.7454 16.6623 13.0909V3.57021C16.6623 2.91566 16.1268 2.38013 15.4723 2.38013H3.57144C2.91689 2.38013 2.38136 2.91566 2.38136 3.57021V13.0909C2.38136 13.7454 2.91689 14.281 3.57144 14.281ZM3.57144 3.57021H15.4723V13.0909H3.57144V3.57021ZM18.4475 16.6611H0.595041C0.267769 16.6611 0 16.9289 0 17.2562C0 17.5834 0.267769 17.8512 0.595041 17.8512H18.4475C18.7747 17.8512 19.0425 17.5834 19.0425 17.2562C19.0425 16.9289 18.7747 16.6611 18.4475 16.6611Z" fill="white"/>
</svg>
