<svg width="16" height="18" viewBox="0 0 16 18" fill="none" xmlns="http://www.w3.org/2000/svg">
<path d="M7.93333 17.7333C8.53449 17.7333 9.11103 17.4998 9.53611 17.0841C9.96119 16.6684 10.2 16.1047 10.2 15.5168H5.66667C5.66667 16.1047 5.90548 16.6684 6.33056 17.0841C6.75564 17.4998 7.33218 17.7333 7.93333 17.7333ZM7.93333 2.12664L7.03007 2.30507C6.00549 2.50921 5.08451 3.05327 4.42301 3.84515C3.7615 4.63703 3.40011 5.6281 3.4 6.65061C3.4 7.3466 3.24813 9.08548 2.8798 10.7978C2.69847 11.6478 2.45367 12.5333 2.1284 13.3002H13.7383C13.413 12.5333 13.1693 11.6489 12.9869 10.7978C12.6185 9.08548 12.4667 7.3466 12.4667 6.65061C12.4663 5.62829 12.1048 4.63748 11.4433 3.84583C10.7818 3.05417 9.86099 2.51028 8.8366 2.30618L7.93333 2.12553V2.12664ZM14.9827 13.3002C15.2354 13.7956 15.5278 14.188 15.8667 14.4085H0C0.338867 14.188 0.631267 13.7956 0.884 13.3002C1.904 11.3054 2.26667 7.62589 2.26667 6.65061C2.26667 3.96859 4.216 1.72987 6.80567 1.21896C6.78985 1.06486 6.80724 0.909228 6.8567 0.762102C6.90617 0.614975 6.98663 0.479621 7.09288 0.364769C7.19913 0.249917 7.32882 0.158117 7.47358 0.0952887C7.61834 0.0324607 7.77496 0 7.93333 0C8.09171 0 8.24833 0.0324607 8.39309 0.0952887C8.53785 0.158117 8.66754 0.249917 8.77379 0.364769C8.88004 0.479621 8.96049 0.614975 9.00996 0.762102C9.05943 0.909228 9.07682 1.06486 9.061 1.21896C10.342 1.47375 11.4936 2.15363 12.3207 3.14348C13.1479 4.13332 13.5998 5.3723 13.6 6.65061C13.6 7.62589 13.9627 11.3054 14.9827 13.3002Z" fill="#191414"/>
</svg>
