<svg width="19" height="19" viewBox="0 0 19 19" fill="none" xmlns="http://www.w3.org/2000/svg">
<path d="M3.4962 5.78705C4.91809 2.545 8.44612 0.717895 11.8698 1.63137C15.6623 2.64327 17.8906 6.63506 16.8468 10.5473C15.803 14.4595 11.8823 16.8106 8.08973 15.7987C6.24348 15.3061 4.71552 14.0904 3.78754 12.4284C3.65114 12.184 3.34602 12.1026 3.10603 12.2465C2.86604 12.3905 2.78206 12.7052 2.91886 12.9503C3.9762 14.8439 5.72001 16.2314 7.82446 16.7929C12.1493 17.9468 16.6203 15.2657 17.8106 10.8044C19.0009 6.34313 16.4599 1.7911 12.135 0.637165C8.17805 -0.418605 4.09879 1.73598 2.52174 5.52705L0.919593 5.09958L2.01515 9.1193L4.96755 6.17963L3.4962 5.78705Z" fill="#191414"/>
<rect x="9.11185" y="3.31352" width="0.828359" height="5.38434" rx="0.414179" fill="#191414"/>
<rect x="9.11185" y="8.4351" width="0.82836" height="5.17725" rx="0.41418" transform="rotate(-43.0915 9.11185 8.4351)" fill="#191414"/>
</svg>
