<svg width="23" height="21" viewBox="0 0 23 21" fill="none" xmlns="http://www.w3.org/2000/svg">
<path fill-rule="evenodd" clip-rule="evenodd" d="M20.7015 10.0819C20.7015 13.5116 19.0899 16.684 16.3718 18.7901C16.0233 19.0601 15.9675 19.5518 16.2472 19.8882C16.5268 20.2247 17.036 20.2785 17.3845 20.0085C20.4813 17.609 22.3196 13.9905 22.3196 10.0819C22.3196 6.18331 20.4908 2.57297 17.4074 0.173029C17.0596 -0.0977295 16.5502 -0.0449517 16.2698 0.290912C15.9894 0.626775 16.0441 1.11854 16.3919 1.3893C19.0982 3.49575 20.7015 6.66095 20.7015 10.0819ZM1.61807 10.0819C1.61807 13.5116 3.22967 16.6841 5.94777 18.7901C6.29625 19.0601 6.35204 19.5518 6.07239 19.8883C5.79273 20.2247 5.28353 20.2786 4.93505 20.0086C1.83824 17.6091 0 13.9905 0 10.0819C0 6.18335 1.8288 2.57302 4.91214 0.173072C5.26 -0.0976861 5.76933 -0.0449083 6.04976 0.290955C6.33018 0.626818 6.27552 1.11858 5.92766 1.38934C3.22139 3.49579 1.61807 6.66099 1.61807 10.0819ZM8.55951 15.4556C6.91584 14.1638 5.944 12.2334 5.944 10.1478C5.944 8.06211 6.91584 6.13173 8.55951 4.83989C8.87654 4.59073 8.92434 4.1406 8.66627 3.8345C8.4082 3.5284 7.942 3.48225 7.62497 3.73142C5.63954 5.29186 4.46365 7.62753 4.46365 10.1478C4.46365 12.668 5.63954 15.0037 7.62497 16.5641C7.942 16.8133 8.4082 16.7671 8.66627 16.461C8.92434 16.1549 8.87654 15.7048 8.55951 15.4556ZM11.1591 11.8897C12.1804 11.8897 13.0083 11.0903 13.0083 10.1042C13.0083 9.11813 12.1804 8.31875 11.1591 8.31875C10.1378 8.31875 9.3099 9.11813 9.3099 10.1042C9.3099 11.0903 10.1378 11.8897 11.1591 11.8897ZM13.6638 15.4556C15.3075 14.1638 16.2794 12.2334 16.2794 10.1478C16.2794 8.06211 15.3075 6.13173 13.6638 4.83989C13.3468 4.59073 13.299 4.1406 13.5571 3.8345C13.8151 3.5284 14.2814 3.48225 14.5984 3.73142C16.5838 5.29186 17.7597 7.62753 17.7597 10.1478C17.7597 12.668 16.5838 15.0037 14.5984 16.5641C14.2814 16.8133 13.8151 16.7671 13.5571 16.461C13.299 16.1549 13.3468 15.7048 13.6638 15.4556Z" fill="#47464B"/>
</svg>
