<svg width="18" height="18" viewBox="0 0 18 18" fill="none" xmlns="http://www.w3.org/2000/svg">
<path d="M6 4.90916H10.9091V6.54552L14.7273 4.3637L10.9091 2.18188V3.81825H6C3.27273 3.81825 1.09091 6.00007 1.09091 8.72734C1.09091 9.38189 1.2 10.0364 1.52728 10.691L2.50909 10.1455C2.29091 9.70916 2.18182 9.27279 2.18182 8.72734C2.18182 6.65461 3.92728 4.90916 6 4.90916ZM15.9273 6.7637L14.9455 7.30916C15.1636 7.74552 15.2727 8.18188 15.2727 8.72734C15.2727 10.8001 13.5273 12.5455 11.4545 12.5455H6.54546V10.9092L2.72728 13.091L6.54546 15.2728V13.6364H11.4545C14.1818 13.6364 16.3636 11.4546 16.3636 8.72734C16.3636 8.07279 16.2545 7.41825 15.9273 6.7637Z" fill="#191414"/>
</svg>
