<svg width="20" height="20" viewBox="0 0 20 20" fill="none" xmlns="http://www.w3.org/2000/svg">
<path d="M6.54547 5.35533H11.9008V7.14046L16.0661 4.76029L11.9008 2.38013V4.16525H6.54547C3.57026 4.16525 1.19009 6.54542 1.19009 9.52062C1.19009 10.2347 1.3091 10.9487 1.66613 11.6628L2.7372 11.0677C2.49918 10.5917 2.38018 10.1157 2.38018 9.52062C2.38018 7.25947 4.28431 5.35533 6.54547 5.35533ZM17.3752 7.37847L16.3041 7.97352C16.5422 8.44955 16.6612 8.92558 16.6612 9.52062C16.6612 11.7818 14.757 13.6859 12.4959 13.6859H7.14051V11.9008L2.97522 14.281L7.14051 16.6611V14.876H12.4959C15.4711 14.876 17.8513 12.4958 17.8513 9.52062C17.8513 8.80657 17.7322 8.09252 17.3752 7.37847Z" fill="white"/>
</svg>
