<svg width="14" height="14" viewBox="0 0 14 14" fill="none" xmlns="http://www.w3.org/2000/svg">
<g clip-path="url(#clip0_147_1704)">
<path fill-rule="evenodd" clip-rule="evenodd" d="M10.2783 9.58908L13.1597 12.9703L12.66 13.3998L9.77071 10.0186C8.7764 10.7734 7.65714 11.1508 6.41294 11.1508C5.65809 11.1508 4.93578 11.0038 4.24603 10.7096C3.55627 10.4155 2.96281 10.0199 2.46563 9.52273C1.96845 9.02557 1.57281 8.43211 1.27871 7.74233C0.984607 7.05256 0.837545 6.33025 0.837524 5.57542C0.837504 4.82058 0.984566 4.09828 1.27871 3.4085C1.57286 2.71873 1.9685 2.12526 2.46563 1.62811C2.96277 1.13095 3.55623 0.735311 4.24603 0.441186C4.93582 0.147062 5.65813 0 6.41294 0C7.16776 0 7.89006 0.147062 8.57985 0.441186C9.26965 0.735311 9.86312 1.13095 10.3603 1.62811C10.8574 2.12526 11.253 2.71873 11.5472 3.4085C11.8413 4.09828 11.9884 4.82058 11.9884 5.57542C11.9884 6.35108 11.8374 7.0851 11.5355 7.77747C11.2335 8.46985 10.8145 9.07373 10.2782 9.58911L10.2783 9.58908ZM6.413 10.4949C7.30318 10.4949 8.1257 10.2749 8.88056 9.83502C9.63541 9.39512 10.2328 8.79775 10.6727 8.04291C11.1126 7.28808 11.3325 6.46556 11.3325 5.57535C11.3325 4.68515 11.1126 3.86263 10.6727 3.1078C10.2327 2.35296 9.63537 1.7556 8.88056 1.31572C8.12574 0.875834 7.30323 0.655892 6.413 0.655892C5.52278 0.655892 4.70026 0.875834 3.94545 1.31572C3.19063 1.7556 2.59327 2.35296 2.15337 3.1078C1.71346 3.86263 1.49352 4.68515 1.49354 5.57535C1.49356 6.46556 1.7135 7.28808 2.15337 8.04291C2.59323 8.79775 3.19059 9.39512 3.94545 9.83502C4.7003 10.2749 5.52282 10.4949 6.413 10.4949Z" fill="white"/>
</g>
<defs>
<clipPath id="clip0_147_1704">
<rect width="13.3998" height="13.3998" fill="white"/>
</clipPath>
</defs>
</svg>
