<svg width="17" height="17" viewBox="0 0 17 17" fill="none" xmlns="http://www.w3.org/2000/svg">
<g clip-path="url(#clip0_147_1706)">
<path d="M12.882 11.4579L16.4398 15.6278L15.2156 16.6702L11.6673 12.5099C10.5197 13.275 9.25403 13.6576 7.87042 13.6576C6.94589 13.6576 6.06122 13.4775 5.21642 13.1172C4.37162 12.757 3.64476 12.2724 3.03582 11.6635C2.42689 11.0546 1.94232 10.3277 1.58211 9.48291C1.22189 8.63809 1.04177 7.75342 1.04175 6.82892C1.04172 5.90441 1.22184 5.01974 1.58211 4.17492C1.94237 3.33009 2.42694 2.60323 3.03582 1.99432C3.64471 1.38541 4.37157 0.90084 5.21642 0.540601C6.06127 0.180363 6.94594 0.000244141 7.87042 0.000244141C8.7949 0.000244141 9.67957 0.180363 10.5244 0.540601C11.3693 0.90084 12.0961 1.38541 12.705 1.99432C13.3139 2.60323 13.7985 3.33009 14.1587 4.17492C14.519 5.01974 14.6991 5.90441 14.6991 6.82892C14.6991 7.4155 14.6258 7.98934 14.4791 8.55042C14.3325 9.1115 14.1237 9.63434 13.8527 10.1189C13.5817 10.6035 13.2581 11.0498 12.8819 11.4579H12.882ZM7.87046 12.0508C8.57818 12.0508 9.25403 11.9121 9.89801 11.6347C10.542 11.3574 11.0967 10.986 11.5621 10.5205C12.0276 10.0551 12.399 9.50041 12.6763 8.85643C12.9537 8.21245 13.0924 7.5366 13.0924 6.82888C13.0924 6.12116 12.9537 5.4453 12.6763 4.80132C12.399 4.15734 12.0276 3.60263 11.5621 3.13717C11.0967 2.67172 10.542 2.30032 9.89801 2.02298C9.25403 1.74564 8.57818 1.60697 7.87046 1.60697C7.16273 1.60697 6.48688 1.74564 5.8429 2.02298C5.19892 2.30032 4.64421 2.67173 4.17875 3.13721C3.71329 3.60269 3.3419 4.15739 3.06456 4.80132C2.78722 5.44525 2.64855 6.12111 2.64855 6.82888C2.64855 7.53665 2.78722 8.2125 3.06456 8.85643C3.3419 9.50036 3.71331 10.0551 4.17879 10.5205C4.64427 10.986 5.19897 11.3574 5.8429 11.6347C6.48683 11.9121 7.16268 12.0507 7.87046 12.0508Z" fill="#191414"/>
</g>
<defs>
<clipPath id="clip0_147_1706">
<rect width="16.67" height="16.67" fill="white"/>
</clipPath>
</defs>
</svg>
