<svg width="18" height="18" viewBox="0 0 18 18" fill="none" xmlns="http://www.w3.org/2000/svg">
<path d="M4.85678 7.22973L5.58904 6.39667C4.43835 5.04295 2.76463 4.31403 1.0909 4.31403V5.35535C2.4508 5.35535 3.8107 5.98014 4.75217 7.02147L4.85678 7.22973ZM12.7024 12.1239C11.4471 12.1239 10.2964 11.6033 9.35491 10.7702L8.72727 11.6033C9.77334 12.6446 11.2379 13.1653 12.7024 13.1653V14.7272L16.3636 12.6446L12.7024 10.562V12.1239ZM12.7024 5.87601V7.43799L16.3636 5.35535L12.7024 3.27271V4.83469C11.0286 4.83469 9.35491 5.56361 8.30884 6.91733L4.75217 10.9785C3.8107 12.0198 2.4508 12.6446 1.0909 12.6446V13.6859C2.76463 13.6859 4.43835 12.957 5.48443 11.6033L9.04109 7.54213C9.98256 6.5008 11.3425 5.87601 12.7024 5.87601Z" fill="#191414"/>
</svg>
