<svg width="20" height="20" viewBox="0 0 20 20" fill="none" xmlns="http://www.w3.org/2000/svg">
<path d="M5.29831 7.88707L6.09713 6.97828C4.84184 5.50149 3.01596 4.7063 1.19008 4.7063V5.84229C2.67361 5.84229 4.15713 6.52388 5.18419 7.65987L5.29831 7.88707ZM13.8571 13.2262C12.4877 13.2262 11.2324 12.6582 10.2054 11.7494L9.52066 12.6582C10.6618 13.7942 12.2595 14.3622 13.8571 14.3622V16.0662L17.8512 13.7942L13.8571 11.5222V13.2262ZM13.8571 6.41028V8.11426L17.8512 5.84229L13.8571 3.57031V5.27429C12.0312 5.27429 10.2054 6.06949 9.06419 7.54627L5.18419 11.9766C4.15713 13.1126 2.67361 13.7942 1.19008 13.7942V14.9302C3.01596 14.9302 4.84184 14.135 5.98301 12.6582L9.86301 8.22786C10.8901 7.09188 12.3736 6.41028 13.8571 6.41028Z" fill="white"/>
</svg>
