<svg width="10" height="10" viewBox="0 0 10 10" fill="none" xmlns="http://www.w3.org/2000/svg">
<path d="M4.72727 8.1039C3.83174 8.1039 2.97288 7.74815 2.33964 7.11491C1.7064 6.48167 1.35065 5.62281 1.35065 4.72727C1.35065 3.83174 1.7064 2.97288 2.33964 2.33964C2.97288 1.7064 3.83174 1.35065 4.72727 1.35065C5.62281 1.35065 6.48167 1.7064 7.11491 2.33964C7.74815 2.97288 8.1039 3.83174 8.1039 4.72727C8.1039 5.62281 7.74815 6.48167 7.11491 7.11491C6.48167 7.74815 5.62281 8.1039 4.72727 8.1039ZM4.72727 9.45455C5.98102 9.45455 7.18342 8.95649 8.06996 8.06996C8.95649 7.18342 9.45455 5.98102 9.45455 4.72727C9.45455 3.47352 8.95649 2.27112 8.06996 1.38459C7.18342 0.498051 5.98102 0 4.72727 0C3.47352 0 2.27112 0.498051 1.38459 1.38459C0.49805 2.27112 0 3.47352 0 4.72727C0 5.98102 0.49805 7.18342 1.38459 8.06996C2.27112 8.95649 3.47352 9.45455 4.72727 9.45455Z" fill="#191414"/>
</svg>
